<svg width="316.6" height="232.5" version="1.1" viewBox="0 0 83.77 61.53" xmlns="http://www.w3.org/2000/svg"><g transform="translate(.1323 -234.7)" stroke="#fff" stroke-linejoin="round"><path transform="matrix(.2646 0 0 .2646 0 233.5)" d="m55 5-8.365 15.93a40 40 0 018.365-.9336 40 40 0 018.346.8984zm-38.89 16.11 5.348 17.17a40 40 0 0111.79-11.83zm77.78 0-17.17 5.348a40 40 0 0111.83 11.79zm.1758 30.53a40 40 0 01.9336 8.365 40 40 0 01-.8984 8.346l15.9-8.346zm-78.17.01953-15.9 8.346 15.93 8.365a40 40 0 01-.9336-8.365 40 40 0 01.8984-8.346zm72.64 30.07a40 40 0 01-11.79 11.83l17.13 5.338zm-67.1.03516-5.338 17.13 17.17-5.348a40 40 0 01-11.83-11.79zm41.92 17.31a40 40 0 01-8.365.9336 40 40 0 01-8.346-.8984l8.346 15.9z" opacity=".5" style="paint-order:markers stroke fill"/><circle cx="14.55" cy="249.4" r="7.938" opacity=".5" stroke-width=".2646" style="paint-order:markers stroke fill"/><g transform="matrix(.882 .3453 -.562 1.046 141 -29.72)" stroke-width=".2646"><rect x="46.3" y="242.8" width="5.292" height="5.292" opacity=".5" style="paint-order:markers stroke fill"/><rect x="52.92" y="242.8" width="5.292" height="5.292" opacity=".5" style="paint-order:markers stroke fill"/><rect x="59.53" y="242.8" width="5.292" height="5.292" opacity=".5" style="paint-order:markers stroke fill"/><rect x="46.3" y="249.4" width="5.292" height="5.292" opacity=".5" style="paint-order:markers stroke fill"/><rect x="52.92" y="249.4" width="5.292" height="5.292" opacity=".5" style="paint-order:markers stroke fill"/><rect x="59.53" y="249.4" width="5.292" height="5.292" opacity=".5" style="paint-order:markers stroke fill"/><rect x="46.3" y="256" width="5.292" height="5.292" opacity=".5" style="paint-order:markers stroke fill"/><rect x="52.92" y="256" width="5.292" height="5.292" opacity=".5" style="paint-order:markers stroke fill"/><rect x="59.53" y="256" width="5.292" height="5.292" opacity=".5" style="paint-order:markers stroke fill"/><rect x="46.3" y="262.6" width="5.292" height="5.292" opacity=".5" style="paint-order:markers stroke fill"/><rect x="52.92" y="262.6" width="5.292" height="5.292" opacity=".5" style="paint-order:markers stroke fill"/><rect x="59.53" y="262.6" width="5.292" height="5.292" opacity=".5" style="paint-order:markers stroke fill"/><rect x="46.3" y="269.2" width="5.292" height="5.292" opacity=".5" style="paint-order:markers stroke fill"/><rect x="52.92" y="269.2" width="5.292" height="5.292" opacity=".5" style="paint-order:markers stroke fill"/><rect x="59.53" y="269.2" width="5.292" height="5.292" opacity=".5" style="paint-order:markers stroke fill"/><rect x="46.3" y="275.8" width="5.292" height="5.292" opacity=".5" style="paint-order:markers stroke fill"/><rect x="52.92" y="275.8" width="5.292" height="5.292" opacity=".5" style="paint-order:markers stroke fill"/><rect x="59.53" y="275.8" width="5.292" height="5.292" opacity=".5" style="paint-order:markers stroke fill"/><path d="m44.98 242.8c0-.7938.5292-1.323 1.323-1.323h18.52c.7938 0 1.323.5292 1.323 1.323v38.36c0 .7938-.5292 1.323-1.323 1.323h-18.52c-.7938 0-1.323-.5292-1.323-1.323z" opacity=".5" style="paint-order:markers stroke fill"/></g><g transform="matrix(.882 .3453 -.562 1.046 161.3 -21.96)" stroke-width=".2646"><rect x="46.3" y="242.8" width="5.292" height="5.292" opacity=".5" style="paint-order:markers stroke fill"/><rect x="52.92" y="242.8" width="5.292" height="5.292" opacity=".5" style="paint-order:markers stroke fill"/><rect x="59.53" y="242.8" width="5.292" height="5.292" opacity=".5" style="paint-order:markers stroke fill"/><rect x="46.3" y="249.4" width="5.292" height="5.292" opacity=".5" style="paint-order:markers stroke fill"/><rect x="52.92" y="249.4" width="5.292" height="5.292" opacity=".5" style="paint-order:markers stroke fill"/><rect x="59.53" y="249.4" width="5.292" height="5.292" opacity=".5" style="paint-order:markers stroke fill"/><rect x="46.3" y="256" width="5.292" height="5.292" opacity=".5" style="paint-order:markers stroke fill"/><rect x="52.92" y="256" width="5.292" height="5.292" opacity=".5" style="paint-order:markers stroke fill"/><rect x="59.53" y="256" width="5.292" height="5.292" opacity=".5" style="paint-order:markers stroke fill"/><rect x="46.3" y="262.6" width="5.292" height="5.292" opacity=".5" style="paint-order:markers stroke fill"/><rect x="52.92" y="262.6" width="5.292" height="5.292" opacity=".5" style="paint-order:markers stroke fill"/><rect x="59.53" y="262.6" width="5.292" height="5.292" opacity=".5" style="paint-order:markers stroke fill"/><rect x="46.3" y="269.2" width="5.292" height="5.292" opacity=".5" style="paint-order:markers stroke fill"/><rect x="52.92" y="269.2" width="5.292" height="5.292" opacity=".5" style="paint-order:markers stroke fill"/><rect x="59.53" y="269.2" width="5.292" height="5.292" opacity=".5" style="paint-order:markers stroke fill"/><rect x="46.3" y="275.8" width="5.292" height="5.292" opacity=".5" style="paint-order:markers stroke fill"/><rect x="52.92" y="275.8" width="5.292" height="5.292" opacity=".5" style="paint-order:markers stroke fill"/><rect x="59.53" y="275.8" width="5.292" height="5.292" opacity=".5" style="paint-order:markers stroke fill"/><path d="m44.98 242.8c0-.7938.5292-1.323 1.323-1.323h18.52c.7938 0 1.323.5292 1.323 1.323v38.36c0 .7938-.5292 1.323-1.323 1.323h-18.52c-.7938 0-1.323-.5292-1.323-1.323z" opacity=".5" style="paint-order:markers stroke fill"/></g></g></svg>
