<svg width="240" height="240" version="1.1" viewBox="0 0 63.5 63.5" xmlns="http://www.w3.org/2000/svg"><g transform="translate(-7.937 -233.5)"><path transform="matrix(.2646 0 0 .2646 0 233.5)" d="m30 10v220c0 5 5 10 10 10h220c5 0 10-5 10-10v-220c0-5-5-10-10-10h-220c-5 0-10 5-10 10zm120-0.07032c60.28-4.087e-4 109.1 48.86 109.1 109.1-6.7e-4 60.28-48.86 109.1-109.1 109.1-60.28 4.1e-4 -109.1-48.86-109.1-109.1-4.1e-4 -60.28 48.86-109.1 109.1-109.1z" opacity=".5" style="paint-order:markers stroke fill"/><path transform="matrix(.2646 0 0 .2646 0 233.5)" d="m69.39 58.06c-4.134 0.0871-7.853 2.46-11.09 8.066-17.3 29.96 52.27 25.73 78.3 50.13a13.7 13.7 0 0 0-0.2969 2.812 13.7 13.7 0 0 0 9.432 13.01c8.117 34.75-30.34 92.88 4.264 92.88 34.6 0-3.86-58.15 4.266-92.89a13.7 13.7 0 0 0 9.43-13 13.7 13.7 0 0 0-0.3066-2.805c26.03-24.41 95.62-20.17 78.31-50.14-17.3-29.97-48.43 32.41-82.58 42.75a13.7 13.7 0 0 0-9.125-3.502 13.7 13.7 0 0 0-9.123 3.502c-27.76-8.402-53.53-51.2-71.49-50.82z" opacity=".5" style="paint-order:markers stroke fill"/></g></svg>
